USFL
nRows=283
nColumns=2
inDegrees=yes
endheader
time	tib_ant_r	
6.32056	 51.091397	
6.35383	 51.119329	
6.3871	 51.123509	
6.42036	 51.130808	
6.45363	 51.147054	
6.4869	 51.144221	
6.52016	 51.149111	
6.55343	 51.158921	
6.58669	 51.161762	
6.61996	 51.152672	
6.65323	 51.164436	
6.68649	 51.155106	
6.71976	 51.170422	
6.75302	 51.174649	
6.78629	 51.163595	
6.81956	 51.197690	
6.85282	 51.208102	
6.88609	 51.198391	
6.91935	 51.229960	
6.95262	 51.244091	
6.98589	 51.229359	
7.01915	 51.242944	
7.05242	 51.244168	
7.08569	 51.285811	
7.11895	 51.316198	
7.15222	 51.292215	
7.18548	 51.347460	
7.21875	 51.371893	
7.25202	 51.373831	
7.28528	 51.370461	
7.31855	 51.356811	
7.35181	 51.359150	
7.38508	 51.370898	
7.41835	 51.387832	
7.45161	 51.372403	
7.48488	 51.367352	
7.51815	 51.365316	
7.55141	 51.367594	
7.58468	 51.380029	
7.61794	 51.389010	
7.65121	 51.387831	
7.68448	 51.391222	
7.71774	 51.392816	
7.75101	 51.414310	
7.78427	 51.429230	
7.81754	 51.435295	
7.85081	 51.459388	
7.88407	 51.463710	
7.91734	 51.484409	
7.9506	 51.521016	
7.98387	 51.544261	
8.01714	 51.540284	
8.0504	 51.519855	
8.08367	 51.530519	
8.11694	 51.517319	
8.1502	 51.553398	
8.18347	 51.339205	
8.21673	 51.192193	
8.25	 51.075214	
8.28327	 50.915796	
8.31653	 50.558325	
8.3498	 50.393075	
8.38306	 50.157916	
8.41633	 49.755562	
8.4496	 49.814916	
8.48286	 49.791240	
8.51613	 49.458628	
8.5494	 48.678175	
8.58266	 48.397440	
8.61593	 48.121030	
8.64919	 47.886674	
8.68246	 47.371834	
8.71573	 47.176662	
8.74899	 46.933635	
8.78226	 46.463890	
8.81552	 46.192427	
8.84879	 45.808276	
8.88206	 45.270766	
8.91532	 44.294712	
8.94859	 44.002208	
8.98185	 43.746171	
9.01512	 43.529719	
9.04839	 43.404277	
9.08165	 43.347016	
9.11492	 43.241256	
9.14819	 43.351340	
9.18145	 43.373873	
9.21472	 43.105359	
9.24798	 42.676886	
9.28125	 42.575216	
9.31452	 42.636887	
9.34778	 42.962707	
9.38105	 43.055488	
9.41431	 43.043317	
9.44758	 43.011897	
9.48085	 42.808670	
9.51411	 42.509132	
9.54738	 39.569033	
9.58065	 39.277897	
9.61391	 39.187902	
9.64718	 39.049782	
9.68044	 38.807005	
9.71371	 38.919699	
9.74698	 38.832065	
9.78024	 38.750424	
9.81351	 38.714137	
9.84677	 38.437949	
9.88004	 38.095337	
9.91331	 38.002142	
9.94657	 37.851800	
9.97984	 37.674628	
10.0131	 37.565622	
10.0464	 37.301275	
10.0796	 37.151503	
10.1129	 36.982770	
10.1462	 36.660539	
10.1794	 36.447785	
10.2127	 36.292685	
10.246	 36.020439	
10.2792	 36.480731	
10.3125	 36.359464	
10.3458	 36.171520	
10.379	 36.085246	
10.4123	 35.983826	
10.4456	 35.993277	
10.4788	 35.751286	
10.5121	 35.497686	
10.5454	 35.482789	
10.5786	 35.262846	
10.6119	 35.132196	
10.6452	 35.066842	
10.6784	 34.837036	
10.7117	 34.580434	
10.745	 34.512468	
10.7782	 34.132317	
10.8115	 34.001467	
10.8448	 33.878131	
10.878	 33.718248	
10.9113	 33.639106	
10.9446	 34.526436	
10.9778	 34.472711	
11.0111	 34.427725	
11.0444	 34.321118	
11.0776	 34.178007	
11.1109	 34.124640	
11.1442	 34.078743	
11.1774	 34.049000	
11.2107	 33.956417	
11.244	 33.858298	
11.2772	 33.684939	
11.3105	 33.595802	
11.3437	 33.420552	
11.377	 33.353376	
11.4103	 33.298048	
11.4435	 33.206535	
11.4768	 33.198675	
11.5101	 33.042005	
11.5433	 32.942199	
11.5766	 32.767522	
11.6099	 32.641493	
11.6431	 32.582029	
11.6764	 32.497288	
11.7097	 32.349990	
11.7429	 32.313008	
11.7762	 32.212647	
11.8095	 32.133838	
11.8427	 32.116731	
11.876	 31.978262	
11.9093	 31.738364	
11.9425	 31.583965	
11.9758	 31.509867	
12.0091	 31.430329	
12.0423	 31.343093	
12.0756	 31.258597	
12.1089	 31.257251	
12.1421	 31.208728	
12.1754	 31.069343	
12.2087	 31.038511	
12.2419	 30.974415	
12.2752	 30.843615	
12.3085	 30.674569	
12.3417	 30.538027	
12.375	 31.368547	
12.4083	 31.398588	
12.4415	 31.382216	
12.4748	 31.350312	
12.5081	 31.329098	
12.5413	 31.429146	
12.5746	 31.550041	
12.6079	 31.503721	
12.6411	 31.462067	
12.6744	 31.569555	
12.7077	 31.707414	
12.7409	 31.812866	
12.7742	 32.035491	
12.8075	 32.214748	
12.8407	 32.242156	
12.874	 32.391046	
12.9073	 32.721961	
12.9405	 32.957573	
12.9738	 33.148285	
13.0071	 33.518110	
13.0403	 33.700693	
13.0736	 33.821787	
13.1069	 34.167482	
13.1401	 34.187872	
13.1734	 34.345244	
13.2067	 34.433194	
13.2399	 34.695400	
13.2732	 34.954904	
13.3065	 35.148088	
13.3397	 35.325489	
13.373	 35.779387	
13.4062	 36.039356	
13.4395	 36.356962	
13.4728	 36.503343	
13.506	 36.764799	
13.5393	 37.100344	
13.5726	 37.335452	
13.6058	 37.584407	
13.6391	 37.891329	
13.6724	 38.187487	
13.7056	 38.375318	
13.7389	 38.805625	
13.7722	 38.946780	
13.8054	 39.141045	
13.8387	 39.350546	
13.872	 39.708143	
13.9052	 40.132837	
13.9385	 40.476869	
13.9718	 40.860378	
14.005	 41.187245	
14.0383	 41.316919	
14.0716	 41.536464	
14.1048	 41.722408	
14.1381	 41.890878	
14.1714	 42.058499	
14.2046	 42.063517	
14.2379	 42.298830	
14.2712	 42.523398	
14.3044	 42.523237	
14.3377	 42.746656	
14.371	 42.951648	
14.4042	 42.953310	
14.4375	 43.119595	
14.4708	 43.231277	
14.504	 43.339873	
14.5373	 43.403390	
14.5706	 43.366347	
14.6038	 43.486959	
14.6371	 43.571074	
14.6704	 43.606831	
14.7036	 43.686810	
14.7369	 43.732409	
14.7702	 43.710946	
14.8034	 43.765117	
14.8367	 43.775849	
14.87	 43.815715	
14.9032	 43.834662	
14.9365	 43.836900	
14.9698	 43.861008	
15.003	 43.869226	
15.0363	 43.872515	
15.0696	 43.908353	
15.1028	 43.922449	
15.1361	 43.940245	
15.1694	 43.965240	
15.2026	 43.986506	
15.2359	 44.019558	
15.2692	 44.031814	
15.3024	 44.040480	
15.3357	 44.046613	
15.369	 44.066801	
15.4022	 44.066947	
15.4355	 44.078986	
15.4687	 44.089636	
15.502	 44.094305	
15.5353	 44.089458	
15.5685	 44.063519	
15.6018	 44.081970	
15.6351	 44.156113	
15.6683	 44.176471	
15.7016	 44.173126	
